<?xml version="1.0" encoding="iso-8859-1"?>
<!-- Generator: Adobe Illustrator 16.0.0, SVG Export Plug-In . SVG Version: 6.00 Build 0)  -->
<!DOCTYPE svg PUBLIC "-//W3C//DTD SVG 1.1//EN" "http://www.w3.org/Graphics/SVG/1.1/DTD/svg11.dtd">
<svg version="1.1" id="Capa_1" xmlns="http://www.w3.org/2000/svg" xmlns:xlink="http://www.w3.org/1999/xlink" x="0px" y="0px"
	 width="612px" height="612px" viewBox="0 0 612 612" style="enable-background:new 0 0 612 612;" xml:space="preserve">
<g>
	<g id="chart_2">
		<g>
			<path d="M19.125,592.875V0H0v612h612v-19.125H19.125z M207.621,420.75c73.918-4.15,126.225-225.35,155.065-225.35
				c23.868,0,57.872,176.849,116.586,203.872c45.021,20.731,132.135,2.353,132.135,2.353v-38.25c0,0-99.335,19.642-126.607-7.65
				C447.009,317.953,423.198,153,363.375,153c-64.929,0-117.657,230.093-164.36,230.093c-94.171,0-115.343-96.466-115.343-96.466
				L57.375,306C57.375,306,68.238,428.572,207.621,420.75z"/>
		</g>
	</g>
</g>
<g>
</g>
<g>
</g>
<g>
</g>
<g>
</g>
<g>
</g>
<g>
</g>
<g>
</g>
<g>
</g>
<g>
</g>
<g>
</g>
<g>
</g>
<g>
</g>
<g>
</g>
<g>
</g>
<g>
</g>
</svg>
